<?xml version="1.0" encoding="iso-8859-1"?>
<!-- Generator: Adobe Illustrator 19.0.0, SVG Export Plug-In . SVG Version: 6.00 Build 0)  -->
<svg version="1.1" id="Capa_1" xmlns="http://www.w3.org/2000/svg" xmlns:xlink="http://www.w3.org/1999/xlink" x="0px" y="0px"
	 viewBox="0 0 512 512" style="enable-background:new 0 0 512 512;" xml:space="preserve">
<path style="fill:#FF9700;" d="M512,256c0,2.194,0,4.284-0.105,6.478c-3.344,136.255-113.162,246.073-249.417,249.417
	c-2.194,0-4.284,0.104-6.478,0.104s-4.284,0-6.478-0.104C113.267,508.552,3.448,398.733,0.104,262.478C0,260.284,0,258.194,0,256
	c0-2.194,0-4.284,0.104-6.478C3.448,113.267,113.267,3.448,249.522,0.104C251.716,0,253.806,0,256,0c2.194,0,4.284,0,6.478,0.104
	c136.255,3.344,246.073,113.162,249.417,249.417C512,251.716,512,253.806,512,256z"/>
<path style="fill:#C6C7CB;" d="M512,256c0,2.194,0,4.284-0.105,6.478c-3.344,136.255-113.162,246.073-249.417,249.417
	c-2.194,0-4.284,0.104-6.478,0.104V256H512z"/>
<path d="M262.478,0.105v511.791c-2.194,0-4.284,0.104-6.478,0.104s-4.284,0-6.478-0.104V0.105C251.716,0,253.806,0,256,0
	S260.284,0,262.478,0.105z"/>
<g>
	<polygon style="fill:#FFFFFF;" points="182.335,127.269 136.777,127.269 136.777,81.711 123.82,81.711 123.82,127.269 
		78.367,127.269 78.367,140.225 123.82,140.225 123.82,185.678 136.777,185.678 136.777,140.225 182.335,140.225 	"/>
	<polygon style="fill:#FFFFFF;" points="171.677,410.436 139.494,378.253 171.677,346.07 162.482,336.98 130.299,369.058 
		98.116,336.98 89.025,346.07 121.208,378.253 89.025,410.436 98.116,419.631 130.299,387.448 162.482,419.631 	"/>
	<rect x="327.053" y="127.269" style="fill:#FFFFFF;" width="103.967" height="12.957"/>
</g>
<rect x="327.053" y="350.877" width="103.967" height="12.957"/>
<rect x="327.053" y="397.584" width="103.967" height="12.957"/>
<path d="M512,256c0,2.194,0,4.284-0.105,6.478H0.104C0,260.284,0,258.194,0,256c0-2.194,0-4.284,0.104-6.478h511.791
	C512,251.716,512,253.806,512,256z"/>
<g>
</g>
<g>
</g>
<g>
</g>
<g>
</g>
<g>
</g>
<g>
</g>
<g>
</g>
<g>
</g>
<g>
</g>
<g>
</g>
<g>
</g>
<g>
</g>
<g>
</g>
<g>
</g>
<g>
</g>
</svg>
